HIERARCHY
ROOT Hip
{
   OFFSET 0.00000 0.00000 0.00000
   CHANNELS 6 Xposition Yposition Zposition Zrotation Yrotation Xrotation
   JOINT Head
   {
      OFFSET 0.000000 23.756001 0.000000
      CHANNELS 3 Zrotation Yrotation Xrotation
      End Site
      {
         OFFSET 0.000000 14.154000 0.000000
      }
      JOINT LeftShoulder
      {
         OFFSET 7.854600 0.000000 0.000000
         CHANNELS 3 Zrotation Yrotation Xrotation
         JOINT LeftHand
         {
            OFFSET 0.000000 -11.478000 0.000000
            CHANNELS 3 Zrotation Yrotation Xrotation
            End Site
            {
               OFFSET 0.000000 -12.571000 0.000000
            }
         }
      }
      JOINT RightShoulder
      {
         OFFSET -8.371200 0.000000 0.000000
         CHANNELS 3 Zrotation Yrotation Xrotation
         JOINT RightHand
         {
            OFFSET 0.000000 -17.191250 0.000000
            CHANNELS 3 Zrotation Yrotation Xrotation
            End Site
            {
               OFFSET 0.000000 -9.420800 0.000000
            }
         }
      }
   }
   JOINT LeftHip
   {
      OFFSET 8.311300 0.000000 0.000000
      CHANNELS 3 Zrotation Yrotation Xrotation
      JOINT LeftKnee
      {
         OFFSET 0.000000 -23.427999 0.000000
         CHANNELS 3 Zrotation Yrotation Xrotation
         JOINT LeftFoot
         {
            OFFSET 0.000000 -17.863000 0.000000
            CHANNELS 3 Zrotation Yrotation Xrotation
            End Site
            {
               OFFSET 0.000000 0.000000 11.641000
            }
         }
      }
   }
   JOINT RightHip
   {
      OFFSET -8.311300 0.000000 0.000000
      CHANNELS 3 Zrotation Yrotation Xrotation
      JOINT RightKnee
      {
         OFFSET 0.000000 -21.203000 0.000000
         CHANNELS 3 Zrotation Yrotation Xrotation
         JOINT RightFoot
         {
            OFFSET 0.000000 -18.184000 0.000000
            CHANNELS 3 Zrotation Yrotation Xrotation
            End Site
            {
               OFFSET 0.000000 0.000000 11.692999
            }
         }
      }
   }
}
MOTION
Frames: 9
Frame Time: 0.016670
-5.116393 63.109449 -8.849596 -41.993810 141.130423 78.670556 -16.851962 19.714554 -18.665802 -21.310228 -90.051973 82.609383 77.571688 37.824758 146.231372 -137.140213 -93.222021 121.793925 -205.044628 12.269911 -59.851281 -88.959273 -26.522253 78.606318 121.128187 -37.312558 10.925279 3.033670 -54.051122 -25.223352 -53.496982 -69.040911 67.193174 86.491321 -25.081541 19.233533 -9.946536 -70.031582 33.561927
-5.043629 64.360270 -8.981905 -43.285692 140.900068 81.417474 -16.184657 21.698536 -17.038009 -21.874570 -88.650671 82.144226 80.995662 38.752287 148.364536 -138.108556 -92.990273 120.438939 -204.256739 14.063079 -61.599475 -86.993702 -23.818642 76.697068 121.897457 -37.850091 11.776406 2.897238 -53.121776 -25.356475 -55.492203 -64.140961 70.570225 85.981734 -25.867420 13.110577 -10.834855 -71.883397 33.186755
-4.970930 65.637855 -9.076063 -44.866601 140.721718 83.975209 -15.287828 23.545088 -15.062601 -22.333440 -87.588181 81.720393 84.384733 40.232095 151.234663 -139.232136 -92.735097 118.919112 -203.759774 15.952470 -62.884015 -84.848203 -20.880891 75.847994 122.657316 -38.654506 12.078847 2.629881 -52.292512 -25.701305 -56.650764 -59.743146 72.971542 86.979754 -25.943049 9.630844 -12.606274 -72.527832 31.527579
-4.877880 66.921996 -9.154684 -46.655871 140.564610 86.329541 -14.189352 25.504452 -12.533991 -22.804936 -87.409353 81.210833 87.190179 41.546658 154.934235 -140.411368 -92.841826 117.263884 -203.400315 18.337373 -64.136876 -82.525822 -17.707031 75.822784 122.976900 -39.279943 12.232828 2.369299 -51.353006 -26.026409 -57.223619 -55.437097 74.838540 89.076158 -26.487441 7.456863 -14.961243 -73.253328 29.221171
-4.754044 68.228706 -9.224688 -48.541441 140.329993 88.608672 -12.968609 27.418876 -9.338995 -23.393724 -87.753219 80.575830 89.703449 42.533282 158.933926 -141.681592 -93.696316 115.317772 -203.313039 20.799582 -65.769797 -80.188798 -14.487562 76.299790 122.811979 -39.439988 12.450670 2.061426 -50.111568 -26.330849 -57.525513 -50.612696 76.266965 92.145679 -27.683424 5.959492 -15.732977 -74.358268 28.657527
-4.558111 69.531034 -9.312757 -50.365398 140.035557 90.901294 -11.674848 29.077423 -5.725569 -24.126451 -87.993395 79.751857 92.464949 43.579861 163.281164 -143.019708 -95.240854 112.933995 -203.535826 23.775345 -67.608061 -77.785753 -11.401848 77.071144 121.686855 -38.359787 13.106836 1.536080 -47.922947 -26.555982 -57.372442 -45.311106 77.264432 95.549442 -28.806938 5.357585 -14.954590 -75.378494 29.707758
-4.363801 70.767454 -9.457819 -53.283409 139.553551 92.307739 -10.034929 29.724990 -1.490131 -25.239386 -88.042402 78.606762 95.457078 44.308684 166.886875 -144.499878 -96.914517 110.078430 -204.474991 26.693062 -68.951723 -75.735084 -8.684764 78.821380 119.769676 -36.845315 13.788937 0.894451 -45.464574 -26.788760 -57.188890 -39.845135 78.938190 98.944204 -30.880699 3.824899 -14.458605 -77.205726 30.571718
-4.138582 71.997541 -9.638022 -56.427195 138.779526 93.657582 -11.042446 29.962107 0.862543 -24.814731 -87.507291 79.073537 97.865826 44.613730 170.124467 -144.395499 -98.020885 108.697167 -205.879291 29.336219 -70.621308 -74.161251 -6.372801 80.728328 117.238134 -35.525856 14.327297 0.169772 -43.349855 -27.294754 -56.696990 -34.811715 80.576069 101.531664 -31.918977 2.697371 -15.460328 -78.221512 29.725287
-3.899355 73.168687 -9.827007 -60.186753 137.875278 94.514737 -10.021435 30.472602 3.388848 -25.781895 -87.308976 78.304840 99.521436 44.486279 172.012713 -145.677457 -97.048765 106.069368 -207.718729 31.588382 -72.685978 -72.973529 -4.254615 83.172819 114.311351 -34.252514 15.049086 -0.387721 -41.437426 -27.646403 -55.858943 -30.260713 82.791038 102.695350 -31.839354 1.649718 -17.806891 -78.316711 27.352710
